<svg width="628" height="123" viewBox="0 0 628 123" fill="none" xmlns="http://www.w3.org/2000/svg">
<path d="M96 122.509L115.5 1.85966e-05L91.5 0L79.4115 83.5425L70.4159 34.2996H45.0483L35.7594 83.5425L24.5 0H0L19.5 122.509H47L57.6343 70.21L69 122.509H96Z" fill="white"/>
<path d="M122.186 1.85966e-05V122.509H198.781V100.824H147.207V69.9911H155.193V48.3065H147.207V20.523H198.781V1.85966e-05H122.186Z" fill="white"/>
<path d="M192.824 69.9911H170.211V48.3065H192.824V69.9911Z" fill="white"/>
<path fill-rule="evenodd" clip-rule="evenodd" d="M213.353 81.6506H238.034V68.6358H253.864C259.424 68.6358 263.793 70.1605 266.97 73.2099C270.147 76.1464 271.736 80.2122 271.736 85.4075C271.736 90.6028 270.147 94.6687 266.97 97.6051C263.793 100.542 259.424 102.01 253.864 102.01H251.312V122.509H254.885C263.623 122.509 271.169 121.04 277.523 118.104C283.878 115.167 288.757 111.045 292.161 105.737C295.679 100.316 297.438 93.991 297.438 86.7628C297.438 80.4381 296.02 75.1299 293.183 70.8382C290.346 66.5464 286.601 63.3276 281.949 61.1817C277.41 59.0358 272.36 58.0194 266.8 58.1323V57.6241C271.793 57.6241 276.388 56.4947 280.587 54.2359C284.899 51.977 288.303 48.8147 290.8 44.7488C293.41 40.683 294.715 35.9394 294.715 30.5183C294.715 20.8054 290.97 13.1254 283.481 7.47837C275.991 1.71839 265.608 1.85966e-05 253.013 1.85966e-05H213.353V81.6506ZM253.013 48.6453H238.034V19.3371H253.013C258.006 19.3371 261.92 20.636 264.757 23.2336C267.594 25.7183 269.013 29.2759 269.013 33.9065C269.013 38.4241 267.594 42.0382 264.757 44.7488C261.92 47.3465 258.006 48.6453 253.013 48.6453Z" fill="white"/>
<path d="M357.155 122.509V70.0442H382.687V98.791H397.495C402.715 98.791 406.914 97.3228 410.091 94.3863C413.268 91.4499 414.857 87.5534 414.857 82.6969V38.4806C414.857 33.7371 413.268 29.8971 410.091 26.9607C406.914 24.0242 402.715 22.556 397.495 22.556L357.155 22.5563V1.85966e-05H397.495C406.12 1.85966e-05 413.609 0.476038 419.963 3.75132C426.432 7.0266 431.424 11.6572 434.942 17.643C438.573 23.516 440.389 30.4618 440.389 38.4806V82.6969C440.389 90.6028 438.573 97.5486 434.942 103.535C431.424 109.52 426.432 114.207 419.963 117.596C413.609 120.871 406.12 122.509 397.495 122.509H357.155Z" fill="white"/>
<path d="M451.897 122.509V1.85966e-05H528.492V20.523H476.918V48.3065H482.078V69.9911H476.918V100.824H528.492V122.509H451.897Z" fill="white"/>
<path d="M497.097 69.9911H522.535V48.3065H497.097V69.9911Z" fill="white"/>
<path d="M565.192 122.509L552.122 70.0438H576.44L577.958 76.937C578.525 79.6475 579.206 83.0922 580 87.271C580.908 91.4498 581.589 95.0075 582.043 97.9439C582.497 95.0075 583.064 91.4498 583.745 87.271C584.426 83.0922 585.05 79.5911 585.617 76.7675L587.056 70.0438H610.458L597.532 122.509H565.192Z" fill="white"/>
<path d="M571.652 48.2905H546.703L534.5 1.85966e-05H561L571.652 48.2905Z" fill="white"/>
<path d="M615.817 48.2905H591.713L602 1.85966e-05L628 0L615.817 48.2905Z" fill="white"/>
<path d="M326.407 100.585H304.379V122.509H326.407V100.585Z" fill="white"/>
</svg>
