<svg width="628" height="128" viewBox="0 0 628 128" fill="none" xmlns="http://www.w3.org/2000/svg">
<path d="M95.8857 127.5L115.612 0.0585938H91.6162L79.6045 85.8984L70.6201 36.4844H45.2842L36.0068 85.8984L24.2881 0.0585938H0.291992L20.0186 127.5H46.8193L57.8545 72.5195L69.085 127.5H95.8857Z" fill="white"/>
<path d="M122.326 0.899905V125H198.826V103.24H147.316V72.2999H155.291V50.5399H147.316V22.6599H198.826V0.899905H122.326Z" fill="white"/>
<path d="M192.876 72.2999H170.291V50.5399H192.876V72.2999Z" fill="white"/>
<path fill-rule="evenodd" clip-rule="evenodd" d="M213.379 83.9999H238.029V70.9399H253.839C259.393 70.9399 263.756 72.4699 266.929 75.5299C270.103 78.4766 271.689 82.5566 271.689 87.7699C271.689 92.9832 270.103 97.0632 266.929 100.01C263.756 102.957 259.393 104.43 253.839 104.43H251.291V125H254.859C263.586 125 271.123 123.527 277.469 120.58C283.816 117.633 288.689 113.497 292.089 108.17C295.603 102.73 297.359 96.3832 297.359 89.1299C297.359 82.7832 295.943 77.4566 293.109 73.1499C290.276 68.8432 286.536 65.6132 281.889 63.4599C277.356 61.3066 272.313 60.2866 266.759 60.3999V59.8899C271.746 59.8899 276.336 58.7566 280.529 56.4899C284.836 54.2232 288.236 51.0499 290.729 46.9699C293.336 42.8899 294.639 38.1299 294.639 32.6899C294.639 22.9432 290.899 15.2366 283.419 9.56991C275.939 3.78991 265.909 0.899905 253.329 0.899905H213.379V83.9999ZM252.989 50.8799H238.029V21.4699H252.989C257.976 21.4699 261.886 22.7732 264.719 25.3799C267.553 27.8732 268.969 31.4432 268.969 36.0899C268.969 40.6232 267.553 44.2499 264.719 46.9699C261.886 49.5766 257.976 50.8799 252.989 50.8799Z" fill="white"/>
<path d="M357.002 125V72.3531H382.502V101.2H397.292C402.505 101.2 406.699 99.7266 409.872 96.7799C413.045 93.8332 414.632 89.9232 414.632 85.0499V40.6799C414.632 35.9199 413.045 32.0666 409.872 29.1199C406.699 26.1732 402.505 24.6999 397.292 24.6999L357.002 24.7002V0.899905H397.292C405.905 0.899905 413.385 2.54324 419.732 5.8299C426.192 9.11657 431.179 13.7632 434.692 19.7699C438.319 25.6632 440.132 32.6332 440.132 40.6799V85.0499C440.132 92.9832 438.319 99.9532 434.692 105.96C431.179 111.967 426.192 116.67 419.732 120.07C413.385 123.357 405.905 125 397.292 125H357.002Z" fill="white"/>
<path d="M451.626 125V0.899905H528.126V22.6599H476.616V50.5399H481.77V72.2999H476.616V103.24H528.126V125H451.626Z" fill="white"/>
<path d="M496.77 72.2999H522.176V50.5399H496.77V72.2999Z" fill="white"/>
<path d="M564.779 125L551.726 72.3528H576.014L577.529 79.2699C578.096 81.9899 578.776 85.4466 579.569 89.6399C580.476 93.8332 581.156 97.4032 581.609 100.35C582.062 97.4032 582.629 93.8332 583.309 89.6399C583.989 85.4466 584.612 81.9332 585.179 79.0999L586.617 72.3528H609.989L597.079 125H564.779Z" fill="white"/>
<path d="M571.231 50.5239H546.313L534.009 0.899905H560.359L571.231 50.5239Z" fill="white"/>
<path d="M615.341 50.5239H591.267L601.839 0.899905H627.509L615.341 50.5239Z" fill="white"/>
<path d="M326.292 103H304.292V125H326.292V103Z" fill="white"/>
</svg>
