<?xml version="1.0" standalone="no"?>
<!DOCTYPE svg PUBLIC "-//W3C//DTD SVG 20010904//EN"
 "http://www.w3.org/TR/2001/REC-SVG-20010904/DTD/svg10.dtd">
<svg version="1.0" xmlns="http://www.w3.org/2000/svg"
 width="2400.000000pt" height="2400.000000pt" viewBox="0 0 2400.000000 2400.000000"
 preserveAspectRatio="xMidYMid meet">
<metadata>
Created by potrace 1.14, written by Peter Selinger 2001-2017
</metadata>
<g transform="translate(0.000000,2400.000000) scale(0.100000,-0.100000)"
fill="#000000" stroke="none">
<path d="M8505 15909 c-401 -34 -720 -121 -1049 -285 -236 -118 -403 -239
-581 -418 -274 -276 -463 -623 -545 -1003 -49 -226 -52 -274 -57 -785 l-5
-488 791 0 791 0 0 398 c0 219 5 434 10 479 47 372 227 605 544 702 223 69
568 69 792 0 224 -69 393 -223 475 -434 67 -171 71 -214 76 -702 l5 -443 789
0 789 0 0 389 c0 497 -13 664 -71 906 -125 530 -470 1011 -928 1295 -224 139
-527 264 -776 320 -299 68 -730 96 -1050 69z"/>
<path d="M21145 15909 c-457 -39 -846 -159 -1208 -373 -481 -283 -829 -758
-958 -1306 -54 -230 -61 -316 -66 -822 l-5 -478 790 0 790 0 5 443 c4 401 6
450 25 532 46 200 99 305 216 420 165 163 380 235 706 235 572 0 882 -250 940
-760 5 -47 10 -262 10 -477 l0 -393 790 0 790 0 0 419 c0 507 -13 658 -75 902
-74 291 -226 592 -418 828 -336 415 -890 711 -1496 801 -264 39 -586 50 -836
29z"/>
<path d="M0 13140 l0 -2680 790 0 790 0 0 480 0 480 376 -2 376 -3 183 -450
c223 -551 736 -1817 958 -2365 l164 -405 866 -3 c594 -1 867 1 867 8 0 6 -69
178 -154 383 -247 596 -946 2288 -1226 2966 -249 602 -257 625 -245 655 8 17
362 834 789 1816 426 982 771 1788 767 1793 -4 4 -389 6 -857 5 l-849 -3 -632
-1475 -631 -1475 -376 -3 -376 -2 -2 1477 -3 1478 -787 3 -788 2 0 -2680z"/>
<path d="M13700 15085 l0 -735 623 0 c343 0 1185 3 1870 7 l1247 6 -2 726 -3
726 -1867 3 -1868 2 0 -735z"/>
<path d="M6273 10863 c3 -635 6 -774 20 -858 44 -273 105 -474 206 -682 109
-222 218 -370 412 -558 443 -430 1024 -649 1779 -672 776 -23 1408 169 1890
575 346 291 603 730 694 1184 50 244 51 269 51 1038 l0 725 -787 3 -787 2 -4
-712 c-3 -675 -5 -718 -24 -803 -102 -446 -395 -655 -923 -655 -225 0 -392 34
-540 111 -204 105 -321 270 -386 544 -15 61 -18 164 -23 790 l-6 720 -788 3
-788 2 4 -757z"/>
<path d="M18914 11606 c-3 -8 -4 -344 -1 -748 3 -696 5 -740 26 -871 82 -515
272 -894 613 -1223 380 -366 845 -572 1463 -650 172 -22 642 -25 810 -6 655
75 1134 288 1521 676 331 332 518 716 601 1231 14 84 17 221 20 853 l4 752
-788 -2 -788 -3 -6 -720 c-6 -763 -6 -755 -55 -910 -26 -78 -90 -197 -140
-255 -162 -190 -404 -280 -754 -280 -324 0 -542 73 -706 235 -117 115 -170
218 -217 420 -19 86 -21 123 -24 803 l-4 712 -785 0 c-667 0 -785 -2 -790 -14z"/>
<path d="M15857 10488 c-11 -361 -85 -572 -267 -758 -133 -137 -289 -220 -502
-267 -106 -23 -435 -25 -543 -4 -261 52 -480 190 -616 388 -102 147 -179 404
-179 594 l0 49 -792 0 -791 0 6 -152 c22 -519 174 -967 449 -1331 34 -45 114
-135 178 -201 463 -476 1153 -726 2004 -726 570 0 1095 115 1485 327 460 249
799 627 981 1095 111 284 157 541 167 936 l6 242 -790 0 -790 0 -6 -192z"/>
<path d="M0 8975 l0 -785 788 2 787 3 3 783 2 782 -790 0 -790 0 0 -785z"/>
</g>
</svg>
