<svg width="300" height="98" viewBox="0 0 300 98" fill="none" xmlns="http://www.w3.org/2000/svg">
<path d="M0 77.004H19.7632V96.5659H0V77.004Z" fill="#1F1F1F"/>
<path d="M93.2474 94.3462C97.9914 96.6951 103.57 97.8695 109.983 97.8695C116.484 97.8695 122.063 96.6951 126.719 94.3462C131.463 91.9103 135.109 88.561 137.657 84.2983C140.292 79.9485 141.61 74.9028 141.61 69.1611V53.8048H121.843V69.1611C121.843 76.9907 117.89 80.9054 109.983 80.9054C102.077 80.9054 98.1232 76.9907 98.1232 69.1611V53.8048H78.3565V69.1611C78.3565 74.9028 79.6303 79.9485 82.178 84.2983C84.8136 88.561 88.5034 91.9103 93.2474 94.3462Z" fill="#1F1F1F"/>
<path d="M78.3565 37.3855V28.7084C78.3565 22.9667 79.6303 17.9645 82.178 13.7017C84.8136 9.35197 88.5034 6.00266 93.2474 3.65379C97.9914 1.21793 103.57 0 109.983 0C116.484 0 122.063 1.21793 126.719 3.65379C131.463 6.00266 135.109 9.35197 137.657 13.7017C140.292 17.9645 141.61 22.9667 141.61 28.7084V37.3855H121.843V28.7084C121.843 20.8788 117.89 16.964 109.983 16.964C102.077 16.964 98.1232 20.8788 98.1232 28.7084V37.3855H78.3565Z" fill="#1F1F1F"/>
<path d="M0 1.30493V68.2492H19.7667V56.2423H29.1229L45.4634 96.5646H67.2068L46.6494 46.8469L66.4161 1.30493H44.9363L29.1229 38.2343H19.7667V1.30493H0Z" fill="#1F1F1F"/>
<path d="M185.045 98C174.942 98 166.904 95.3031 160.93 89.9094C155.044 84.4288 152.101 77.0777 152.101 67.8562H171.867C171.867 71.858 173.053 75.0768 175.425 77.5126C177.797 79.8615 181.004 81.036 185.045 81.036C189.086 81.036 192.293 79.905 194.665 77.6431C197.037 75.2943 198.223 72.1189 198.223 68.1172V65.4909H217.99V68.1172C217.99 77.3387 215.047 84.6462 209.161 90.0399C203.274 95.3466 195.236 98 185.045 98Z" fill="#1F1F1F"/>
<path d="M171.209 19.5739H197.247V19.5404H217.99V1.30493H171.209V19.5739Z" fill="#1F1F1F"/>
<path d="M251.278 94.3462C256.022 96.6951 261.601 97.8695 268.014 97.8695C274.515 97.8695 280.094 96.6951 284.75 94.3462C289.494 91.9103 293.14 88.561 295.687 84.2983C298.323 79.9485 299.641 74.9028 299.641 69.1611V53.8048H279.874V69.1611C279.874 76.9907 275.921 80.9054 268.014 80.9054C260.107 80.9054 256.154 76.9907 256.154 69.1611V53.8048H236.387V69.1611C236.387 74.9028 237.661 79.9485 240.209 84.2983C242.844 88.561 246.534 91.9103 251.278 94.3462Z" fill="#1F1F1F"/>
<path d="M299.641 28.7084V37.3855H279.874V28.7084C279.874 20.8788 275.921 16.964 268.014 16.964C260.107 16.964 256.154 20.8788 256.154 28.7084V37.3855H236.387V28.7084C236.387 22.9667 237.661 17.9645 240.209 13.7017C242.844 9.35197 246.534 6.00266 251.278 3.65379C256.022 1.21793 261.601 0 268.014 0C274.515 0 280.094 1.21793 284.75 3.65379C289.494 6.00266 293.14 9.35197 295.687 13.7017C298.323 17.9645 299.641 22.9667 299.641 28.7084Z" fill="#1F1F1F"/>
</svg>
