<?xml version="1.0" encoding="UTF-8"?>
<svg width="20px" height="20px" viewBox="0 0 20 20" version="1.1" xmlns="http://www.w3.org/2000/svg" xmlns:xlink="http://www.w3.org/1999/xlink">
    <!-- Generator: Sketch 48.1 (47250) - http://www.bohemiancoding.com/sketch -->
    <title>fullscreen</title>
    <desc>Created with Sketch.</desc>
    <defs></defs>
    <g id="Homepage---s1" stroke="none" stroke-width="1" fill="none" fill-rule="evenodd" transform="translate(-1385.000000, -588.000000)">
        <g id="menu" transform="translate(1350.000000, 0.000000)" fill="#000000">
            <g id="Fullscreen-" transform="translate(35.000000, 588.000000)">
                <path d="M6,0 L6,2 L2,2 L2,6 L0,6 L0,0 L6,0 Z M20,6 L18,6 L18,2 L14,2 L14,-6.58092909e-16 L20,4.4408921e-16 L20,6 Z M14,20 L14,18 L18,18 L18,14 L20,14 L20,20 L14,20 Z M3.6739404e-16,14 L2,14 L2,18 L6,18 L6,20 L0,20 L3.6739404e-16,14 Z" id="fullscreen"></path>
            </g>
        </g>
    </g>
</svg>